{"title":"Piranha.2010.DVDRip.XviD-REZILAB RUS","uid":5868530,"size":1468893184,"categoryP":"video","categoryS":"movies","magnet":"?xt=urn:btih:9a90b0e12c596395e36ee787da2c10e04c55ed28&amp;dn=Piranha.2010.DVDRip.XviD-REZILAB+RUS&amp;tr=udp%3A%2F%2Ftracker.openbittorrent.com%3A80&amp;tr=udp%3A%2F%2Fopen.demonii.com%3A1337&amp;tr=udp%3A%2F%2Ftracker.coppersurfer.tk%3A6969&amp;tr=udp%3A%2F%2Fexodus.desync.com%3A6969","seeders":0,"leechers":0,"uploader":"razvanripper","files":1,"time":1286301000,"description":"ATTENTION LANGUAGE IS RUSSIAN!!!!!!!!!!!!!!!!!!!\n\nFormat                           : AVI - http://www.imdb.com/title/tt0464154/\nFormat/Info                      : Audio Video Interleave - Audio = Russian\nFile size                        : 1.37 GiB\nDuration                         : 1h 24mn\nOverall bit rate                 : 2 308 Kbps\nWriting application              : VirtualDubMod 1.5.10.2 (build 2540/release)\nWriting library                  : VirtualDubMod build 2540/release\n\nVideo\nFormat                           : MPEG-4 Visual\nFormat profile                   : Streaming Video@L1\nFormat settings, BVOP            : Yes\nFormat settings, QPel            : No\nFormat settings, GMC             : No warppoints\nFormat settings, Matrix          : Default (H.263)\nMuxing mode                      : Packed bitstream\nCodec ID                         : XVID\nCodec ID/Hint                    : XviD\nDuration                         : 1h 24mn\nBit rate                         : 1 850 Kbps\nWidth                            : 720 pixels\nHeight                           : 304 pixels\nDisplay aspect ratio             : 2.35\nFrame rate                       : 25.000 fps\nResolution                       : 24 bits\nColorimetry                      : 4:2:0\nScan type                        : Progressive\nBits/(Pixel*Frame)               : 0.338\nStream size                      : 1.10 GiB (80%)\nWriting library                  : XviD 1.2.1 (UTC 2008-12-04)\n\nAudio\nFormat                           : AC-3\nFormat/Info                      : Audio Coding 3\nCodec ID                         : 2000\nDuration                         : 1h 24mn\nBit rate mode                    : Constant\nBit rate                         : 448 Kbps\nChannel(s)                       : 6 channels\nChannel positions                : Front: L C R, Surround: L R, LFE\nSampling rate                    : 48.0 KHz\nVideo delay                      : 3ms\nStream size                      : 272 MiB (19%)\nAlignment                        : Split accross interleaves\nInterleave, duration             : 40 ms (1.00 video frame)\nInterleave, preload duration     : 500 ms","torrent":{"xt":"urn:btih:9a90b0e12c596395e36ee787da2c10e04c55ed28","amp;dn":"Piranha.2010.DVDRip.XviD-REZILAB+RUS","amp;tr":["udp%3A%2F%2Ftracker.openbittorrent.com%3A80","udp%3A%2F%2Fopen.demonii.com%3A1337","udp%3A%2F%2Ftracker.coppersurfer.tk%3A6969","udp%3A%2F%2Fexodus.desync.com%3A6969"],"infoHash":"9a90b0e12c596395e36ee787da2c10e04c55ed28","infoHashBuffer":{"type":"Buffer","data":[154,144,176,225,44,89,99,149,227,110,231,135,218,44,16,224,76,85,237,40]},"announce":[],"urlList":[]}}